<svg xmlns="http://www.w3.org/2000/svg" viewBox="0 0 100 100">
  <!-- Background circle -->
  <circle cx="50" cy="50" r="48" fill="#083342" stroke="#1bc8d2" stroke-width="2"/>

  <!-- Sun -->
  <circle cx="50" cy="25" r="12" fill="#F4A614"/>

  <!-- Sun rays -->
  <g stroke="#F4A614" stroke-width="2" stroke-linecap="round">
    <line x1="50" y1="8" x2="50" y2="4"/>
    <line x1="61" y1="12" x2="64" y2="9"/>
    <line x1="65" y1="25" x2="69" y2="25"/>
    <line x1="61" y1="38" x2="64" y2="41"/>
    <line x1="39" y1="38" x2="36" y2="41"/>
    <line x1="35" y1="25" x2="31" y2="25"/>
    <line x1="39" y1="12" x2="36" y2="9"/>
  </g>

  <!-- Boat -->
  <path d="M25 45 L50 35 L75 45 L70 50 L30 50 Z" fill="#1bc8d2"/>
  <path d="M45 35 L55 35 L52 25 Z" fill="#DED18D"/>

  <!-- Waves -->
  <path d="M15 65 Q30 55 45 65 Q60 75 75 65 Q85 55 95 65" 
        fill="none" stroke="#27BCD4" stroke-width="2"/>
  <path d="M10 75 Q25 65 40 75 Q55 85 70 75 Q85 65 95 75" 
        fill="none" stroke="#95E1F7" stroke-width="2"/>

  <!-- Company initials -->
  <text x="50" y="90" text-anchor="middle" fill="#DED18D" 
        font-family="Arial, sans-serif" font-size="10" font-weight="bold">EET</text>
</svg>